<svg width="14" height="14" viewBox="0 0 14 14" fill="none" xmlns="http://www.w3.org/2000/svg">
<g opacity="0.6">
<path d="M4.66667 4.66667H2.33333C1.04689 4.66667 0 3.61978 0 2.33333C0 1.04689 1.04689 0 2.33333 0H13.2222V1.55556H2.33333C1.904 1.55556 1.55556 1.90478 1.55556 2.33333C1.55556 2.76189 1.904 3.11111 2.33333 3.11111H4.66667V4.66667Z" fill="white"/>
<path d="M10.1111 9.33333C9.68178 9.33333 9.33333 8.98489 9.33333 8.55556C9.33333 8.12622 9.68178 7.77778 10.1111 7.77778C10.5404 7.77778 10.8889 8.12622 10.8889 8.55556C10.8889 8.98489 10.5404 9.33333 10.1111 9.33333Z" fill="white"/>
<path d="M12.4444 14H1.55556C0.697667 14 0 13.3023 0 12.4444V2.33333H1.55556V12.4444H12.4444V4.66667H3.88889V3.11111H12.4444C13.3023 3.11111 14 3.80878 14 4.66667V12.4444C14 13.3023 13.3023 14 12.4444 14Z" fill="white"/>
</g>
</svg>
